<mxfile host="app.diagrams.net" modified="2024-01-05T06:50:49.036Z" agent="Mozilla/5.0 (Macintosh; Intel Mac OS X 10_15_7) AppleWebKit/537.36 (KHTML, like Gecko) Chrome/120.0.0.0 Safari/537.36" etag="64wROCd4JNEaUr2wLkPY" version="22.1.16" type="device">
  <diagram name="Page-1" id="90a13364-a465-7bf4-72fc-28e22215d7a0">
    <mxGraphModel dx="694" dy="349" grid="1" gridSize="10" guides="1" tooltips="1" connect="1" arrows="1" fold="1" page="1" pageScale="1.5" pageWidth="1169" pageHeight="826" background="none" math="0" shadow="0">
      <root>
        <mxCell id="0" style=";html=1;" />
        <mxCell id="1" style=";html=1;" parent="0" />
        <mxCell id="k0Qkd17oU7xcSKlU3bGR-164" value="" style="rounded=0;whiteSpace=wrap;html=1;strokeWidth=0;" parent="1" vertex="1">
          <mxGeometry x="770" y="50" width="700" height="390" as="geometry" />
        </mxCell>
        <mxCell id="k0Qkd17oU7xcSKlU3bGR-3" value="Branch Predictor" style="whiteSpace=wrap;html=1;shadow=1;fontSize=18;fillColor=#f5f5f5;strokeColor=#666666;verticalAlign=bottom;labelPosition=center;verticalLabelPosition=top;align=center;" parent="1" vertex="1">
          <mxGeometry x="860" y="90" width="440" height="310" as="geometry" />
        </mxCell>
        <mxCell id="3a17f1ce550125da-4" value="&lt;font style=&quot;font-size: 15px;&quot;&gt;BTA_0&lt;/font&gt;" style="whiteSpace=wrap;html=1;shadow=1;fontSize=18;fillColor=#f5f5f5;strokeColor=#666666;" parent="1" vertex="1">
          <mxGeometry x="980" y="120" width="120" height="30" as="geometry" />
        </mxCell>
        <mxCell id="k0Qkd17oU7xcSKlU3bGR-1" value="&lt;font style=&quot;font-size: 15px;&quot;&gt;PB_0&lt;/font&gt;" style="whiteSpace=wrap;html=1;shadow=1;fontSize=18;fillColor=#f5f5f5;strokeColor=#666666;verticalAlign=middle;horizontal=1;" parent="1" vertex="1">
          <mxGeometry x="880" y="120" width="80" height="30" as="geometry" />
        </mxCell>
        <mxCell id="k0Qkd17oU7xcSKlU3bGR-24" value="&lt;font style=&quot;font-size: 15px;&quot;&gt;BTA_1&lt;/font&gt;" style="whiteSpace=wrap;html=1;shadow=1;fontSize=18;fillColor=#f5f5f5;strokeColor=#666666;" parent="1" vertex="1">
          <mxGeometry x="980" y="150" width="120" height="30" as="geometry" />
        </mxCell>
        <mxCell id="k0Qkd17oU7xcSKlU3bGR-25" value="&lt;font style=&quot;font-size: 15px;&quot;&gt;PB_1&lt;/font&gt;" style="whiteSpace=wrap;html=1;shadow=1;fontSize=18;fillColor=#f5f5f5;strokeColor=#666666;verticalAlign=middle;horizontal=1;" parent="1" vertex="1">
          <mxGeometry x="880" y="150" width="80" height="30" as="geometry" />
        </mxCell>
        <mxCell id="k0Qkd17oU7xcSKlU3bGR-26" value="&lt;font style=&quot;font-size: 15px;&quot;&gt;BTA_2&lt;/font&gt;" style="whiteSpace=wrap;html=1;shadow=1;fontSize=18;fillColor=#f5f5f5;strokeColor=#666666;" parent="1" vertex="1">
          <mxGeometry x="980" y="180" width="120" height="30" as="geometry" />
        </mxCell>
        <mxCell id="k0Qkd17oU7xcSKlU3bGR-27" value="&lt;span style=&quot;font-size: 15px;&quot;&gt;PB_2&lt;/span&gt;" style="whiteSpace=wrap;html=1;shadow=1;fontSize=18;fillColor=#f5f5f5;strokeColor=#666666;verticalAlign=middle;horizontal=1;" parent="1" vertex="1">
          <mxGeometry x="880" y="180" width="80" height="30" as="geometry" />
        </mxCell>
        <mxCell id="k0Qkd17oU7xcSKlU3bGR-30" value="&lt;font style=&quot;font-size: 15px;&quot;&gt;BTA_13&lt;/font&gt;" style="whiteSpace=wrap;html=1;shadow=1;fontSize=18;fillColor=#f5f5f5;strokeColor=#666666;" parent="1" vertex="1">
          <mxGeometry x="980" y="260" width="120" height="30" as="geometry" />
        </mxCell>
        <mxCell id="k0Qkd17oU7xcSKlU3bGR-31" value="&lt;font style=&quot;font-size: 15px;&quot;&gt;PB_13&lt;/font&gt;" style="whiteSpace=wrap;html=1;shadow=1;fontSize=18;fillColor=#f5f5f5;strokeColor=#666666;verticalAlign=middle;horizontal=1;" parent="1" vertex="1">
          <mxGeometry x="880" y="260" width="80" height="30" as="geometry" />
        </mxCell>
        <mxCell id="k0Qkd17oU7xcSKlU3bGR-32" value="&lt;font style=&quot;font-size: 15px;&quot;&gt;BTA_14&lt;/font&gt;" style="whiteSpace=wrap;html=1;shadow=1;fontSize=18;fillColor=#f8cecc;strokeColor=#b85450;" parent="1" vertex="1">
          <mxGeometry x="980" y="290" width="120" height="30" as="geometry" />
        </mxCell>
        <mxCell id="k0Qkd17oU7xcSKlU3bGR-134" style="edgeStyle=orthogonalEdgeStyle;rounded=0;orthogonalLoop=1;jettySize=auto;html=1;exitX=0;exitY=0.5;exitDx=0;exitDy=0;endArrow=none;endFill=0;startArrow=classic;startFill=1;" parent="1" source="k0Qkd17oU7xcSKlU3bGR-33" edge="1">
          <mxGeometry relative="1" as="geometry">
            <mxPoint x="840" y="305" as="targetPoint" />
          </mxGeometry>
        </mxCell>
        <mxCell id="k0Qkd17oU7xcSKlU3bGR-135" value="PC_E[5:2]" style="edgeLabel;html=1;align=center;verticalAlign=middle;resizable=0;points=[];labelBackgroundColor=none;" parent="k0Qkd17oU7xcSKlU3bGR-134" vertex="1" connectable="0">
          <mxGeometry x="1" relative="1" as="geometry">
            <mxPoint x="-30" as="offset" />
          </mxGeometry>
        </mxCell>
        <mxCell id="k0Qkd17oU7xcSKlU3bGR-33" value="&lt;font style=&quot;font-size: 15px;&quot;&gt;PB_14&lt;/font&gt;" style="whiteSpace=wrap;html=1;shadow=1;fontSize=18;fillColor=#f8cecc;strokeColor=#b85450;verticalAlign=middle;horizontal=1;" parent="1" vertex="1">
          <mxGeometry x="880" y="290" width="80" height="30" as="geometry" />
        </mxCell>
        <mxCell id="k0Qkd17oU7xcSKlU3bGR-34" value="&lt;font style=&quot;font-size: 15px;&quot;&gt;BTA_15&lt;/font&gt;" style="whiteSpace=wrap;html=1;shadow=1;fontSize=18;fillColor=#f5f5f5;strokeColor=#666666;" parent="1" vertex="1">
          <mxGeometry x="980" y="320" width="120" height="30" as="geometry" />
        </mxCell>
        <mxCell id="k0Qkd17oU7xcSKlU3bGR-35" value="&lt;font style=&quot;font-size: 15px;&quot;&gt;PB_15&lt;/font&gt;" style="whiteSpace=wrap;html=1;shadow=1;fontSize=18;fillColor=#f5f5f5;strokeColor=#666666;verticalAlign=middle;horizontal=1;" parent="1" vertex="1">
          <mxGeometry x="880" y="320" width="80" height="30" as="geometry" />
        </mxCell>
        <mxCell id="UrT2hjumuLU71HCzKK9K-6" style="edgeStyle=orthogonalEdgeStyle;rounded=0;orthogonalLoop=1;jettySize=auto;html=1;exitX=0.5;exitY=0;exitDx=0;exitDy=0;entryX=0.5;entryY=0;entryDx=0;entryDy=0;" edge="1" parent="1" source="k0Qkd17oU7xcSKlU3bGR-35" target="UrT2hjumuLU71HCzKK9K-5">
          <mxGeometry relative="1" as="geometry">
            <Array as="points">
              <mxPoint x="920" y="335" />
              <mxPoint x="920" y="335" />
            </Array>
          </mxGeometry>
        </mxCell>
        <mxCell id="k0Qkd17oU7xcSKlU3bGR-46" value="" style="endArrow=none;dashed=1;html=1;dashPattern=1 3;strokeWidth=2;rounded=0;" parent="1" edge="1">
          <mxGeometry width="50" height="50" relative="1" as="geometry">
            <mxPoint x="919.5" y="210" as="sourcePoint" />
            <mxPoint x="919.5" y="260" as="targetPoint" />
          </mxGeometry>
        </mxCell>
        <mxCell id="k0Qkd17oU7xcSKlU3bGR-159" style="edgeStyle=orthogonalEdgeStyle;rounded=0;orthogonalLoop=1;jettySize=auto;html=1;startArrow=classic;startFill=1;endArrow=none;endFill=0;exitX=0.5;exitY=1;exitDx=0;exitDy=0;" parent="1" source="UrT2hjumuLU71HCzKK9K-5" edge="1">
          <mxGeometry relative="1" as="geometry">
            <mxPoint x="920" y="410" as="targetPoint" />
            <Array as="points" />
            <mxPoint x="860" y="500" as="sourcePoint" />
          </mxGeometry>
        </mxCell>
        <mxCell id="k0Qkd17oU7xcSKlU3bGR-163" value="&lt;font style=&quot;font-size: 10px;&quot;&gt;WE_PrPCSrc&lt;/font&gt;" style="edgeLabel;html=1;align=center;verticalAlign=middle;resizable=0;points=[];fontColor=default;labelBackgroundColor=none;" parent="k0Qkd17oU7xcSKlU3bGR-159" vertex="1" connectable="0">
          <mxGeometry x="0.9626" relative="1" as="geometry">
            <mxPoint y="11" as="offset" />
          </mxGeometry>
        </mxCell>
        <mxCell id="k0Qkd17oU7xcSKlU3bGR-48" value="" style="endArrow=none;dashed=1;html=1;dashPattern=1 3;strokeWidth=2;rounded=0;exitX=0.5;exitY=1;exitDx=0;exitDy=0;entryX=0.5;entryY=0;entryDx=0;entryDy=0;" parent="1" target="k0Qkd17oU7xcSKlU3bGR-30" edge="1">
          <mxGeometry width="50" height="50" relative="1" as="geometry">
            <mxPoint x="1040" y="210" as="sourcePoint" />
            <mxPoint x="929.5" y="270" as="targetPoint" />
          </mxGeometry>
        </mxCell>
        <mxCell id="k0Qkd17oU7xcSKlU3bGR-68" style="edgeStyle=orthogonalEdgeStyle;rounded=0;orthogonalLoop=1;jettySize=auto;html=1;exitX=0.5;exitY=0;exitDx=0;exitDy=0;" parent="1" source="k0Qkd17oU7xcSKlU3bGR-50" edge="1">
          <mxGeometry relative="1" as="geometry">
            <mxPoint x="1320" y="156" as="targetPoint" />
          </mxGeometry>
        </mxCell>
        <mxCell id="k0Qkd17oU7xcSKlU3bGR-69" value="PrALUResult_F" style="edgeLabel;html=1;align=center;verticalAlign=middle;resizable=0;points=[];labelBackgroundColor=none;" parent="k0Qkd17oU7xcSKlU3bGR-68" vertex="1" connectable="0">
          <mxGeometry x="1" y="1" relative="1" as="geometry">
            <mxPoint x="40" y="1" as="offset" />
          </mxGeometry>
        </mxCell>
        <mxCell id="k0Qkd17oU7xcSKlU3bGR-144" style="edgeStyle=orthogonalEdgeStyle;rounded=0;orthogonalLoop=1;jettySize=auto;html=1;exitX=1;exitY=0.5;exitDx=0;exitDy=0;startArrow=classic;startFill=1;endArrow=none;endFill=0;" parent="1" source="k0Qkd17oU7xcSKlU3bGR-50" edge="1">
          <mxGeometry relative="1" as="geometry">
            <mxPoint x="1188.6868686868686" y="230" as="targetPoint" />
          </mxGeometry>
        </mxCell>
        <mxCell id="k0Qkd17oU7xcSKlU3bGR-145" value="PC_F[5:2]" style="edgeLabel;align=center;verticalAlign=middle;resizable=0;points=[];labelBorderColor=none;labelBackgroundColor=none;" parent="k0Qkd17oU7xcSKlU3bGR-144" vertex="1" connectable="0">
          <mxGeometry x="1" y="-1" relative="1" as="geometry">
            <mxPoint x="1" y="10" as="offset" />
          </mxGeometry>
        </mxCell>
        <mxCell id="k0Qkd17oU7xcSKlU3bGR-50" value="" style="shape=trapezoid;perimeter=trapezoidPerimeter;whiteSpace=wrap;html=1;fixedSize=1;fillColor=#f5f5f5;fontColor=#333333;strokeColor=#666666;shadow=1;rotation=90;" parent="1" vertex="1">
          <mxGeometry x="1133.75" y="138.75" width="110" height="35" as="geometry" />
        </mxCell>
        <mxCell id="k0Qkd17oU7xcSKlU3bGR-70" style="edgeStyle=orthogonalEdgeStyle;rounded=0;orthogonalLoop=1;jettySize=auto;html=1;exitX=0.5;exitY=0;exitDx=0;exitDy=0;entryX=0;entryY=0.5;entryDx=0;entryDy=0;" parent="1" source="k0Qkd17oU7xcSKlU3bGR-66" target="k0Qkd17oU7xcSKlU3bGR-109" edge="1">
          <mxGeometry relative="1" as="geometry">
            <mxPoint x="1262.5" y="316.2222222222222" as="targetPoint" />
          </mxGeometry>
        </mxCell>
        <mxCell id="k0Qkd17oU7xcSKlU3bGR-71" value="Prediction&lt;br&gt;Bits" style="edgeLabel;html=1;align=center;verticalAlign=middle;resizable=0;points=[];fontSize=8;labelBackgroundColor=none;" parent="k0Qkd17oU7xcSKlU3bGR-70" vertex="1" connectable="0">
          <mxGeometry x="1" y="-2" relative="1" as="geometry">
            <mxPoint x="-26" y="12" as="offset" />
          </mxGeometry>
        </mxCell>
        <mxCell id="k0Qkd17oU7xcSKlU3bGR-141" value="PC_F[5:2]" style="edgeStyle=orthogonalEdgeStyle;rounded=0;orthogonalLoop=1;jettySize=auto;html=1;exitX=1;exitY=0.5;exitDx=0;exitDy=0;startArrow=classic;startFill=1;endArrow=none;endFill=0;" parent="1" source="k0Qkd17oU7xcSKlU3bGR-66" edge="1">
          <mxGeometry x="1" y="10" relative="1" as="geometry">
            <mxPoint x="1189" y="410" as="targetPoint" />
            <mxPoint x="-10" y="10" as="offset" />
          </mxGeometry>
        </mxCell>
        <mxCell id="k0Qkd17oU7xcSKlU3bGR-66" value="" style="shape=trapezoid;perimeter=trapezoidPerimeter;whiteSpace=wrap;html=1;fixedSize=1;fillColor=#f5f5f5;fontColor=#333333;strokeColor=#666666;shadow=1;rotation=90;" parent="1" vertex="1">
          <mxGeometry x="1133.75" y="298.75" width="110" height="35" as="geometry" />
        </mxCell>
        <mxCell id="k0Qkd17oU7xcSKlU3bGR-78" value="" style="endArrow=none;html=1;rounded=0;" parent="1" edge="1">
          <mxGeometry width="50" height="50" relative="1" as="geometry">
            <mxPoint x="1170" y="180" as="sourcePoint" />
            <mxPoint x="1130" y="180" as="targetPoint" />
          </mxGeometry>
        </mxCell>
        <mxCell id="k0Qkd17oU7xcSKlU3bGR-79" value="" style="endArrow=none;html=1;rounded=0;" parent="1" edge="1">
          <mxGeometry width="50" height="50" relative="1" as="geometry">
            <mxPoint x="1170" y="170" as="sourcePoint" />
            <mxPoint x="1130" y="170" as="targetPoint" />
          </mxGeometry>
        </mxCell>
        <mxCell id="k0Qkd17oU7xcSKlU3bGR-80" value="" style="endArrow=none;html=1;rounded=0;" parent="1" edge="1">
          <mxGeometry width="50" height="50" relative="1" as="geometry">
            <mxPoint x="1170" y="190" as="sourcePoint" />
            <mxPoint x="1130" y="190" as="targetPoint" />
          </mxGeometry>
        </mxCell>
        <mxCell id="k0Qkd17oU7xcSKlU3bGR-87" value="" style="endArrow=none;html=1;rounded=0;" parent="1" edge="1">
          <mxGeometry width="50" height="50" relative="1" as="geometry">
            <mxPoint x="1170" y="290" as="sourcePoint" />
            <mxPoint x="1130" y="290" as="targetPoint" />
          </mxGeometry>
        </mxCell>
        <mxCell id="k0Qkd17oU7xcSKlU3bGR-88" value="" style="endArrow=none;html=1;rounded=0;" parent="1" edge="1">
          <mxGeometry width="50" height="50" relative="1" as="geometry">
            <mxPoint x="1170" y="280" as="sourcePoint" />
            <mxPoint x="1130" y="280" as="targetPoint" />
          </mxGeometry>
        </mxCell>
        <mxCell id="k0Qkd17oU7xcSKlU3bGR-89" value="" style="endArrow=none;html=1;rounded=0;" parent="1" edge="1">
          <mxGeometry width="50" height="50" relative="1" as="geometry">
            <mxPoint x="1170" y="300" as="sourcePoint" />
            <mxPoint x="1130" y="300" as="targetPoint" />
          </mxGeometry>
        </mxCell>
        <mxCell id="k0Qkd17oU7xcSKlU3bGR-90" value="" style="endArrow=none;html=1;rounded=0;" parent="1" edge="1">
          <mxGeometry width="50" height="50" relative="1" as="geometry">
            <mxPoint x="1173.75" y="340" as="sourcePoint" />
            <mxPoint x="1133.75" y="340" as="targetPoint" />
          </mxGeometry>
        </mxCell>
        <mxCell id="k0Qkd17oU7xcSKlU3bGR-91" value="" style="endArrow=none;html=1;rounded=0;" parent="1" edge="1">
          <mxGeometry width="50" height="50" relative="1" as="geometry">
            <mxPoint x="1173.75" y="330" as="sourcePoint" />
            <mxPoint x="1133.75" y="330" as="targetPoint" />
          </mxGeometry>
        </mxCell>
        <mxCell id="k0Qkd17oU7xcSKlU3bGR-92" value="" style="endArrow=none;html=1;rounded=0;" parent="1" edge="1">
          <mxGeometry width="50" height="50" relative="1" as="geometry">
            <mxPoint x="1173.75" y="350" as="sourcePoint" />
            <mxPoint x="1133.75" y="350" as="targetPoint" />
          </mxGeometry>
        </mxCell>
        <mxCell id="k0Qkd17oU7xcSKlU3bGR-99" value="" style="endArrow=none;html=1;rounded=0;" parent="1" edge="1">
          <mxGeometry width="50" height="50" relative="1" as="geometry">
            <mxPoint x="1172.5" y="129.2" as="sourcePoint" />
            <mxPoint x="1132.5" y="129.2" as="targetPoint" />
          </mxGeometry>
        </mxCell>
        <mxCell id="k0Qkd17oU7xcSKlU3bGR-100" value="" style="endArrow=none;html=1;rounded=0;" parent="1" edge="1">
          <mxGeometry width="50" height="50" relative="1" as="geometry">
            <mxPoint x="1172.5" y="119.2" as="sourcePoint" />
            <mxPoint x="1132.5" y="119.2" as="targetPoint" />
          </mxGeometry>
        </mxCell>
        <mxCell id="k0Qkd17oU7xcSKlU3bGR-101" value="" style="endArrow=none;html=1;rounded=0;" parent="1" edge="1">
          <mxGeometry width="50" height="50" relative="1" as="geometry">
            <mxPoint x="1172.5" y="139.2" as="sourcePoint" />
            <mxPoint x="1132.5" y="139.2" as="targetPoint" />
          </mxGeometry>
        </mxCell>
        <mxCell id="k0Qkd17oU7xcSKlU3bGR-106" value="BTA [0:15]" style="text;html=1;strokeColor=none;fillColor=none;align=center;verticalAlign=middle;whiteSpace=wrap;rounded=0;" parent="1" vertex="1">
          <mxGeometry x="1110" y="141.25" width="60" height="30" as="geometry" />
        </mxCell>
        <mxCell id="k0Qkd17oU7xcSKlU3bGR-107" value="PB [0:15]" style="text;html=1;strokeColor=none;fillColor=none;align=center;verticalAlign=middle;whiteSpace=wrap;rounded=0;" parent="1" vertex="1">
          <mxGeometry x="1110" y="301.25" width="60" height="30" as="geometry" />
        </mxCell>
        <mxCell id="k0Qkd17oU7xcSKlU3bGR-113" style="edgeStyle=orthogonalEdgeStyle;rounded=0;orthogonalLoop=1;jettySize=auto;html=1;exitX=1;exitY=0.5;exitDx=0;exitDy=0;" parent="1" source="k0Qkd17oU7xcSKlU3bGR-109" edge="1">
          <mxGeometry relative="1" as="geometry">
            <mxPoint x="1320" y="316" as="targetPoint" />
          </mxGeometry>
        </mxCell>
        <mxCell id="k0Qkd17oU7xcSKlU3bGR-114" value="PrPCSrc_F&lt;br&gt;(Predicted taken/not taken)" style="edgeLabel;html=1;align=center;verticalAlign=middle;resizable=0;points=[];labelBackgroundColor=none;" parent="k0Qkd17oU7xcSKlU3bGR-113" vertex="1" connectable="0">
          <mxGeometry x="0.8702" relative="1" as="geometry">
            <mxPoint x="72" as="offset" />
          </mxGeometry>
        </mxCell>
        <mxCell id="k0Qkd17oU7xcSKlU3bGR-109" value="LUT" style="whiteSpace=wrap;html=1;shadow=1;fontSize=18;fillColor=#f5f5f5;strokeColor=#666666;" parent="1" vertex="1">
          <mxGeometry x="1250" y="301.88" width="40" height="28.75" as="geometry" />
        </mxCell>
        <mxCell id="k0Qkd17oU7xcSKlU3bGR-153" style="edgeStyle=orthogonalEdgeStyle;rounded=0;orthogonalLoop=1;jettySize=auto;html=1;exitX=0;exitY=0.75;exitDx=0;exitDy=0;exitPerimeter=0;startArrow=classic;startFill=1;endArrow=none;endFill=0;" parent="1" source="k0Qkd17oU7xcSKlU3bGR-151" edge="1">
          <mxGeometry relative="1" as="geometry">
            <mxPoint x="1074.7575757575758" y="410" as="targetPoint" />
            <Array as="points">
              <mxPoint x="1045" y="390" />
              <mxPoint x="1075" y="390" />
            </Array>
          </mxGeometry>
        </mxCell>
        <mxCell id="k0Qkd17oU7xcSKlU3bGR-154" value="ALUResult_E" style="edgeLabel;html=1;align=center;verticalAlign=middle;resizable=0;points=[];fontSize=10;" parent="k0Qkd17oU7xcSKlU3bGR-153" vertex="1" connectable="0">
          <mxGeometry x="0.9776" relative="1" as="geometry">
            <mxPoint x="15" y="10" as="offset" />
          </mxGeometry>
        </mxCell>
        <mxCell id="UrT2hjumuLU71HCzKK9K-2" value="32" style="edgeLabel;html=1;align=center;verticalAlign=middle;resizable=0;points=[];labelBackgroundColor=none;" vertex="1" connectable="0" parent="k0Qkd17oU7xcSKlU3bGR-153">
          <mxGeometry x="-0.1459" y="-1" relative="1" as="geometry">
            <mxPoint y="-11" as="offset" />
          </mxGeometry>
        </mxCell>
        <mxCell id="UrT2hjumuLU71HCzKK9K-1" style="edgeStyle=orthogonalEdgeStyle;rounded=0;orthogonalLoop=1;jettySize=auto;html=1;exitX=1;exitY=0.5;exitDx=0;exitDy=0;exitPerimeter=0;entryX=0.5;entryY=0;entryDx=0;entryDy=0;" edge="1" parent="1" source="k0Qkd17oU7xcSKlU3bGR-151" target="k0Qkd17oU7xcSKlU3bGR-34">
          <mxGeometry relative="1" as="geometry">
            <Array as="points">
              <mxPoint x="1040" y="320" />
              <mxPoint x="1040" y="320" />
            </Array>
          </mxGeometry>
        </mxCell>
        <mxCell id="k0Qkd17oU7xcSKlU3bGR-151" value="" style="shape=or;whiteSpace=wrap;html=1;fillColor=#f5f5f5;fontColor=#333333;strokeColor=#666666;shadow=1;rotation=-90;" parent="1" vertex="1">
          <mxGeometry x="1030" y="360" width="20" height="20" as="geometry" />
        </mxCell>
        <mxCell id="k0Qkd17oU7xcSKlU3bGR-162" value="&lt;font style=&quot;font-size: 10px;&quot;&gt;WE_PrALUResult&lt;/font&gt;" style="edgeStyle=orthogonalEdgeStyle;rounded=0;orthogonalLoop=1;jettySize=auto;html=1;exitX=0;exitY=0.25;exitDx=0;exitDy=0;exitPerimeter=0;startArrow=classic;startFill=1;endArrow=none;endFill=0;" parent="1" source="k0Qkd17oU7xcSKlU3bGR-151" edge="1">
          <mxGeometry x="0.9987" y="10" relative="1" as="geometry">
            <mxPoint x="1010" y="410" as="targetPoint" />
            <mxPoint x="7" y="3" as="offset" />
            <mxPoint x="1003.5" y="385" as="sourcePoint" />
            <Array as="points">
              <mxPoint x="1035" y="390" />
              <mxPoint x="1010" y="390" />
              <mxPoint x="1010" y="410" />
            </Array>
          </mxGeometry>
        </mxCell>
        <mxCell id="UrT2hjumuLU71HCzKK9K-7" style="edgeStyle=orthogonalEdgeStyle;rounded=0;orthogonalLoop=1;jettySize=auto;html=1;exitX=1;exitY=0.5;exitDx=0;exitDy=0;entryX=1;entryY=0.5;entryDx=0;entryDy=0;" edge="1" parent="1" source="UrT2hjumuLU71HCzKK9K-5" target="k0Qkd17oU7xcSKlU3bGR-33">
          <mxGeometry relative="1" as="geometry">
            <Array as="points">
              <mxPoint x="970" y="380" />
              <mxPoint x="970" y="305" />
            </Array>
          </mxGeometry>
        </mxCell>
        <mxCell id="UrT2hjumuLU71HCzKK9K-5" value="&lt;font style=&quot;font-size: 10px;&quot;&gt;PB_update&lt;/font&gt;" style="whiteSpace=wrap;html=1;shadow=1;fontSize=10;fillColor=#f5f5f5;strokeColor=#666666;verticalAlign=middle;horizontal=1;" vertex="1" parent="1">
          <mxGeometry x="880" y="370" width="80" height="20" as="geometry" />
        </mxCell>
      </root>
    </mxGraphModel>
  </diagram>
</mxfile>
